<svg width="214" height="21" viewBox="0 0 214 21" fill="none" xmlns="http://www.w3.org/2000/svg">
<g clip-path="url(#clip0_21_48)">
<path d="M51.573 0C55.8694 0 58.7531 2.13908 60.2237 3.85052L57.3113 6.41763C56.1289 5.24817 54.4563 3.90773 51.573 3.90773C47.8535 3.9078 44.9989 6.76004 44.9989 10.411C44.9989 14.0335 47.8535 16.8858 51.573 16.8859C54.4563 16.8859 56.1868 15.5738 57.4266 14.3187L60.3679 16.8859C58.8106 18.6829 55.8694 20.8224 51.573 20.8224C45.2872 20.8223 40.6158 16.1728 40.6158 10.411C40.6158 4.62075 45.2872 6.96983e-05 51.573 0ZM71.3349 0C77.5919 0 82.2921 4.62068 82.2921 10.411C82.2921 16.1728 77.5919 20.8224 71.3349 20.8224C65.0492 20.8223 60.3778 16.1728 60.3778 10.411C60.3778 4.62071 65.0492 3.12885e-05 71.3349 0ZM8.59277 0.427689C12.6872 0.427702 15.1381 2.85221 15.1382 5.67603C15.1382 7.70121 13.8695 9.21314 12.4277 9.75511C13.9559 10.2685 16.1473 11.9513 16.1473 14.6895C16.1473 17.7415 13.4947 20.3943 9.16957 20.3944H0V0.427689H8.59277ZM22.9324 20.3944H18.6073V0.427689H22.9324V20.3944ZM40.6679 4.42108H34.8437V20.3944H30.5184V4.42108H24.6649V0.427689H40.6679V4.42108ZM89.1394 20.3944H84.8142V0.427689H89.1394V20.3944ZM106.558 13.2633H106.673V0.427689H110.912V20.3944H107.106L97.2443 7.52999H97.1577V20.3944H92.89V0.427689H96.7249L106.558 13.2633ZM4.32513 16.8859H8.93883C10.6111 16.8858 11.7646 15.745 11.7647 14.2618C11.7647 12.7501 10.6112 11.6091 8.93883 11.6091H4.32513V16.8859ZM71.3349 3.90773C67.6442 3.90776 64.7609 6.76 64.7609 10.411C64.7609 14.0335 67.6442 16.8858 71.3349 16.8859C74.9969 16.8859 77.8802 14.0336 77.8802 10.411C77.8802 6.75997 74.9969 3.90773 71.3349 3.90773ZM4.32513 8.3288H8.36206C9.8326 8.3288 10.7552 7.41605 10.7552 6.13251C10.7552 4.84893 9.80377 3.90773 8.36206 3.90773H4.32513V8.3288Z" fill="white"/>
<path d="M134.332 0C137.706 0 140.186 1.5977 141.166 2.82422L138.456 5.44824C137.764 4.76368 136.35 3.76465 134.62 3.76465C132.631 3.76479 131.68 4.76317 131.68 5.81836C131.68 9.35529 141.627 7.64425 141.627 14.6895C141.627 17.9981 138.773 20.822 134.131 20.8223C130.209 20.8223 127.498 18.9678 126.345 17.4561L129.056 14.832C129.978 15.8018 131.593 17.0283 133.813 17.0283C135.976 17.0283 137.071 15.8872 137.071 14.7178C137.071 11.1814 127.153 12.8923 127.152 5.84766C127.152 2.48186 130.151 3.00026e-05 134.332 0ZM124.181 20.3945H119.855V0.427734H124.181V20.3945ZM152.942 0.427734C157.066 0.427792 159.95 3.28024 159.95 6.98828C159.95 9.55539 158.565 11.7227 156.345 12.8066L160.536 20.1602L168.288 0.427734H173.104L180.918 20.3945H176.333L176.076 19.7139L172.969 11.167L170.682 4.79199H170.595L169.596 7.5752L164.662 20.3945H155.971L152.251 13.5488H148.329V20.3945H144.004V0.427734H152.942ZM197.223 4.27832H186.698V8.3291H194.916V12.0371H186.698V16.5439H197.512V20.3945H182.373V0.427734H197.223V4.27832ZM204.433 16.4014H213.746V20.3945H200.107V0.427734H204.433V16.4014ZM148.259 4.40332V9.82227H153.082C154.578 9.82227 155.792 8.60962 155.792 7.11328C155.792 5.61677 154.579 4.40332 153.082 4.40332H148.259Z" fill="url(#paint0_linear_21_48)"/>
</g>
<defs>
<linearGradient id="paint0_linear_21_48" x1="123.471" y1="-2.81568e-07" x2="131.046" y2="37.0102" gradientUnits="userSpaceOnUse">
<stop offset="0.365385" stop-color="#FA9819"/>
<stop offset="0.865385" stop-color="white"/>
</linearGradient>
<clipPath id="clip0_21_48">
<rect width="214" height="21" fill="white"/>
</clipPath>
</defs>
</svg>
